<?xml version="1.0" encoding="UTF-8" standalone="no"?>
<svg
   xmlns:dc="http://purl.org/dc/elements/1.1/"
   xmlns:cc="http://creativecommons.org/ns#"
   xmlns:rdf="http://www.w3.org/1999/02/22-rdf-syntax-ns#"
   xmlns:svg="http://www.w3.org/2000/svg"
   xmlns="http://www.w3.org/2000/svg"
   xmlns:sodipodi="http://sodipodi.sourceforge.net/DTD/sodipodi-0.dtd"
   xmlns:inkscape="http://www.inkscape.org/namespaces/inkscape"
   id="Layer_1"
   viewBox="0 0 66.7 29.4"
   version="1.1"
   inkscape:version="0.91 r13725"
   sodipodi:docname="NANOclipped.svg"
   width="66.699997"
   height="29.4">
  <metadata
     id="metadata3383">
    <rdf:RDF>
      <cc:Work
         rdf:about="">
        <dc:format>image/svg+xml</dc:format>
        <dc:type
           rdf:resource="http://purl.org/dc/dcmitype/StillImage" />
        <dc:title></dc:title>
      </cc:Work>
    </rdf:RDF>
  </metadata>
  <defs
     id="defs3381" />
  <sodipodi:namedview
     pagecolor="#ffffff"
     bordercolor="#666666"
     borderopacity="1"
     objecttolerance="10"
     gridtolerance="10"
     guidetolerance="10"
     inkscape:pageopacity="0"
     inkscape:pageshadow="2"
     inkscape:window-width="1598"
     inkscape:window-height="900"
     id="namedview3379"
     showgrid="false"
     inkscape:zoom="10.777778"
     inkscape:cx="34.920239"
     inkscape:cy="19.652956"
     inkscape:window-x="594"
     inkscape:window-y="416"
     inkscape:window-maximized="0"
     inkscape:current-layer="Layer_1" />
  <style
     id="style3369">.st0{fill:#4a90e2}.st1{fill:#000034}</style>
  <circle
     class="st0"
     cx="4.8000002"
     cy="24.4"
     r="4.8000002"
     id="circle3371"
     style="fill:#4a90e2" />
  <path
     class="st0"
     d="m 62,0.6 c -2.6,0 -4.8,2.1 -4.8,4.8 0,3.8 -0.6,4.8 -4.8,4.8 l -0.4,0 c -2.4,0.2 -4.3,2.2 -4.3,4.7 l 0,0.1 c 0,3.7 -0.7,4.6 -4.8,4.6 -0.2,0 -0.4,0 -0.5,0.1 -2.4,0.3 -4.3,2.3 -4.3,4.7 0,2.6 2.1,4.8 4.8,4.8 2.5,0 4.6,-2 4.7,-4.4 l 0,-0.4 c 0,-3.4 1.1,-4.7 4.7,-4.8 l 0.1,0 c 2.5,0 4.6,-2 4.7,-4.5 l 0,-0.3 c 0,-3.5 1.1,-4.8 4.8,-4.8 2.6,0 4.8,-2.1 4.8,-4.8 0,-2.5 -2.1,-4.6 -4.7,-4.6 z m -28.2,9.6 -0.4,0 c -4.2,0 -4.8,-1 -4.8,-4.8 0,-2.6 -2.1,-4.8 -4.8,-4.8 -2.6,0 -4.8,2.1 -4.8,4.8 0,3.8 -0.6,4.7 -4.8,4.7 l -0.4,0 c -2.4,0.2 -4.3,2.2 -4.3,4.7 0,2.6 2.1,4.8 4.8,4.8 2.5,0 4.6,-2 4.7,-4.4 l 0,-0.3 c 0,-3.5 1.1,-4.8 4.8,-4.8 3.7,0 4.8,1.3 4.8,4.7 0,2.6 2.1,4.8 4.8,4.8 2.7,0 4.8,-2.1 4.8,-4.8 -0.1,-2.4 -2,-4.4 -4.4,-4.6 z"
     id="path3373"
     inkscape:connector-curvature="0"
     style="fill:#4a90e2" />
</svg>
